<svg width="23" height="31" viewBox="0 0 23 31" fill="none" xmlns="http://www.w3.org/2000/svg">
<path d="M12 9.68C11.6267 11.12 11.16 12.6133 10.6 14.16C10.0667 15.7067 9.50667 17.1733 8.92 18.56C8.89333 18.6133 8.82667 18.7467 8.72 18.96C8.61333 19.1467 8.53333 19.2267 8.48 19.2C8.4 19.2 8.36 19.0933 8.36 18.88C8.38667 18.64 8.41333 18.48 8.44 18.4C8.46667 18.08 8.52 17.68 8.6 17.2C8.68 16.72 8.76 16.2267 8.84 15.72C8.94667 15.2133 9.05333 14.72 9.16 14.24C9.29333 13.76 9.41333 13.3467 9.52 13C9.57333 12.8933 9.65333 12.6267 9.76 12.2C9.86667 11.7733 9.97333 11.2667 10.08 10.68C10.2133 10.0667 10.3467 9.4 10.48 8.68C10.6133 7.96 10.7333 7.25333 10.84 6.56L10.36 6.44C10.2267 7.37333 10.0267 8.33333 9.76 9.32C9.52 10.28 9.24 11.2533 8.92 12.24C8.62667 13.2 8.33333 14.1867 8.04 15.2C7.74667 16.1867 7.48 17.1733 7.24 18.16C7.02667 19.0933 6.86667 20.0667 6.76 21.08C6.65333 22.0933 6.61333 23.12 6.64 24.16C6.66667 25.1733 6.78667 26.1733 7 27.16C7.21333 28.12 7.53333 29.0133 7.96 29.84C8.04 30.0267 8.06667 30.12 8.04 30.12C7.98667 30.12 7.94667 30.1067 7.92 30.08L7.84 30C7.09333 29.12 6.53333 28.1733 6.16 27.16C5.81333 26.12 5.58667 25.0533 5.48 23.96C5.4 22.8667 5.42667 21.76 5.56 20.64C5.69333 19.52 5.88 18.4267 6.12 17.36C6.57333 15.3867 7.10667 13.4933 7.72 11.68C8.33333 9.84 8.85333 8.04 9.28 6.28C7.68 6.01333 6.17333 5.77333 4.76 5.56C3.37333 5.32 2.08 5.32 0.88 5.56C0.8 5.56 0.76 5.54667 0.76 5.52C0.76 5.46667 0.773333 5.44 0.8 5.44C0.853333 5.41333 0.893333 5.38667 0.92 5.36C1.82667 4.82666 2.78667 4.53333 3.8 4.48C4.84 4.42667 5.90667 4.48 7 4.64C8.12 4.77333 9.25333 4.96 10.4 5.2C11.5733 5.41333 12.7467 5.53333 13.92 5.56C14.64 5.58667 15.3867 5.53333 16.16 5.4C16.96 5.24 17.72 5.01333 18.44 4.72C19.1867 4.4 19.8533 3.98666 20.44 3.48C21.0533 2.97333 21.5467 2.37333 21.92 1.68C21.9733 1.54667 22.0267 1.48 22.08 1.48V1.6V1.68C21.7867 2.69333 21.3333 3.53333 20.72 4.2C20.1067 4.84 19.4 5.36 18.6 5.76C17.8267 6.16 16.9867 6.44 16.08 6.6C15.2 6.73333 14.3333 6.78667 13.48 6.76C13.6133 7.58667 13.6133 8.54667 13.48 9.64C13.3733 10.7333 13.2 11.84 12.96 12.96C12.72 14.08 12.4667 15.1467 12.2 16.16C11.9333 17.1467 11.72 17.9467 11.56 18.56C11.24 19.84 10.8667 21.1467 10.44 22.48C10.0133 23.8133 9.62667 24.9867 9.28 26C9.22667 26.1333 9.16 26.2533 9.08 26.36C9.02667 26.4667 8.97333 26.5067 8.92 26.48C8.86667 26.4533 8.84 26.3867 8.84 26.28C8.86667 26.1467 8.88 26.0133 8.88 25.88C8.96 23.88 9.25333 21.88 9.76 19.88C10.2667 17.88 10.8133 15.8667 11.4 13.84C11.72 12.72 12.0267 11.5867 12.32 10.44C12.64 9.29333 12.8667 8.06667 13 6.76C12.8667 6.73333 12.7467 6.72 12.64 6.72C12.56 6.72 12.4533 6.72 12.32 6.72C12.32 7.25333 12.2933 7.77333 12.24 8.28C12.2133 8.78666 12.1333 9.25333 12 9.68ZM13.08 1.16C14.12 1.29333 15.1733 1.4 16.24 1.48C17.3067 1.56 18.2267 1.6 19 1.6C19.2667 1.6 19.4 1.64 19.4 1.72C19.4 1.82667 19.2667 1.92 19 2C17.64 2.53333 16.2 2.77333 14.68 2.72C13.1867 2.66667 11.6667 2.52 10.12 2.28C9.18667 2.14667 8.22667 2.01333 7.24 1.88C6.25333 1.74667 5.18667 1.74667 4.04 1.88C3.93333 1.90667 3.88 1.89333 3.88 1.84C3.88 1.78667 3.90667 1.74667 3.96 1.72C4.01333 1.69333 4.06667 1.65333 4.12 1.6C4.62667 1.22667 5.28 0.986665 6.08 0.879998C6.88 0.746665 7.70667 0.693332 8.56 0.719998C9.44 0.719998 10.28 0.773331 11.08 0.879998C11.88 0.986665 12.5467 1.08 13.08 1.16ZM7.08 2.4C8.2 2.56 9.33333 2.76 10.48 3C11.6533 3.24 12.7867 3.50667 13.88 3.8C13.9333 3.85333 14.04 3.90666 14.2 3.96C14.3867 3.98667 14.48 4.04 14.48 4.12C14.48 4.17333 14.4 4.21333 14.24 4.24C14.08 4.26667 13.96 4.30667 13.88 4.36C13.64 4.41333 13.3333 4.44 12.96 4.44C12.6133 4.44 12.24 4.44 11.84 4.44C11.4667 4.41333 11.0933 4.38667 10.72 4.36C10.3467 4.33333 10.0267 4.29333 9.76 4.24C9.57333 4.21333 9.10667 4.16 8.36 4.08C7.64 4 6.84 3.94667 5.96 3.92C5.08 3.89333 4.22667 3.90666 3.4 3.96C2.6 3.98667 2.02667 4.09333 1.68 4.28C1.57333 4.33333 1.50667 4.36 1.48 4.36H1.44C1.44 4.25333 1.49333 4.14666 1.6 4.04C1.86667 3.69333 2.22667 3.4 2.68 3.16C3.16 2.92 3.65333 2.73333 4.16 2.6C4.66667 2.46666 5.17333 2.38666 5.68 2.36C6.21333 2.33333 6.68 2.34667 7.08 2.4ZM8.4 27.16C8.48 27.6133 8.57333 28.0667 8.68 28.52C8.81333 28.9733 8.97333 29.4133 9.16 29.84C9.26667 30.0533 9.28 30.16 9.2 30.16C9.14667 30.16 9.06667 30.1333 8.96 30.08C8.90667 30.0533 8.86667 30.0133 8.84 29.96C8.49333 29.56 8.21333 29.1867 8 28.84C7.81333 28.4933 7.65333 27.9333 7.52 27.16C7.46667 26.8667 7.42667 26.4933 7.4 26.04C7.4 25.5867 7.41333 25.1467 7.44 24.72C7.46667 24.2933 7.50667 23.9333 7.56 23.64C7.61333 23.3467 7.69333 23.2 7.8 23.2C7.82667 23.2 7.85333 23.2667 7.88 23.4C7.93333 23.5333 7.97333 23.6933 8 23.88C8.02667 24.04 8.05333 24.2133 8.08 24.4C8.10667 24.56 8.12 24.6667 8.12 24.72C8.17333 25.1733 8.21333 25.6 8.24 26C8.29333 26.4 8.34667 26.7867 8.4 27.16ZM20 2.12C20.5867 1.61333 21.08 1.06667 21.48 0.479999C21.5333 0.373332 21.5867 0.319998 21.64 0.319998C21.6667 0.319998 21.68 0.413332 21.68 0.599999C21.68 0.706666 21.6667 0.799999 21.64 0.879998C21.5333 1.33333 21.4133 1.69333 21.28 1.96C21.1467 2.22667 20.8267 2.54666 20.32 2.92C20.1333 3.08 19.88 3.24 19.56 3.4C19.24 3.53333 18.9333 3.65333 18.64 3.76C18.3467 3.86667 18.08 3.93333 17.84 3.96C17.6267 3.96 17.5067 3.90667 17.48 3.8C17.48 3.77333 17.52 3.73333 17.6 3.68C17.68 3.6 17.7733 3.52 17.88 3.44C18.0133 3.36 18.1333 3.29333 18.24 3.24C18.3467 3.16 18.4267 3.10666 18.48 3.08C18.7467 2.94667 19 2.8 19.24 2.64C19.5067 2.48 19.76 2.30666 20 2.12Z" fill="black"/>
</svg>
